<?xml version="1.0" encoding="UTF-8" ?>
<!DOCTYPE svg PUBLIC "-//W3C//DTD SVG 1.1//EN" "http://www.w3.org/Graphics/SVG/1.1/DTD/svg11.dtd">
<svg width="515pt" height="518pt" viewBox="0 0 515 518" version="1.1" xmlns="http://www.w3.org/2000/svg">
<g id="#ffffffff">
<path fill="#ffffff" opacity="1.00" d=" M 20.00 129.13 C 165.60 129.14 311.20 129.13 456.80 129.13 C 456.80 183.27 456.81 237.40 456.80 291.54 C 349.86 291.48 242.92 291.59 135.98 291.60 C 133.00 291.64 129.99 291.39 127.04 291.87 C 122.44 292.79 119.03 297.29 119.21 301.95 C 119.18 333.36 119.21 364.78 119.20 396.20 C 89.82 396.19 60.43 396.21 31.05 396.19 C 24.98 396.61 19.54 391.09 20.01 385.04 C 19.99 299.74 20.00 214.43 20.00 129.13 M 151.16 158.26 C 147.99 159.55 145.78 162.58 145.17 165.91 C 138.80 194.59 132.44 223.28 126.08 251.98 C 124.60 256.75 127.13 262.31 131.82 264.13 C 137.31 266.62 144.30 262.92 145.48 257.05 C 151.98 228.01 158.40 198.94 164.81 169.88 C 166.99 162.29 158.32 154.83 151.16 158.26 M 80.76 168.79 C 70.76 180.79 60.81 192.83 50.87 204.88 C 47.71 208.53 47.91 214.36 51.16 217.89 C 60.97 229.74 70.76 241.61 80.62 253.43 C 83.76 257.61 90.21 258.52 94.37 255.36 C 99.06 252.23 99.80 245.05 96.13 240.86 C 88.02 230.92 79.77 221.10 71.61 211.20 C 79.84 201.21 88.17 191.31 96.33 181.27 C 99.76 177.17 98.95 170.45 94.68 167.26 C 90.60 163.92 84.01 164.62 80.76 168.79 M 192.69 171.76 C 190.80 176.39 193.47 181.06 196.64 184.32 C 204.12 193.31 211.58 202.30 219.00 211.34 C 210.73 221.30 202.43 231.24 194.24 241.27 C 190.28 246.01 192.19 254.05 197.90 256.45 C 202.40 258.68 207.97 256.72 210.73 252.71 C 219.46 242.13 228.21 231.57 236.97 221.02 C 239.13 218.40 241.80 215.73 241.97 212.13 C 242.32 209.09 240.93 206.20 238.96 203.99 C 229.12 192.18 219.39 180.27 209.50 168.51 C 204.93 162.88 194.89 164.91 192.69 171.76 M 272.33 176.56 C 267.39 177.79 263.97 183.18 265.12 188.18 C 265.94 192.78 270.36 196.33 275.03 196.17 C 281.01 196.21 286.99 196.27 292.97 196.14 C 298.56 196.13 303.28 190.65 302.52 185.12 C 302.08 179.96 297.16 175.90 292.04 176.21 C 285.47 176.38 278.85 175.77 272.33 176.56 M 333.33 176.41 C 328.05 177.30 324.21 182.93 325.42 188.17 C 326.27 193.06 331.12 196.58 336.02 196.20 C 363.35 196.19 390.68 196.23 418.00 196.18 C 421.75 196.29 425.45 194.15 427.14 190.80 C 429.48 186.53 428.04 180.72 424.00 178.01 C 421.42 176.09 418.10 176.14 415.05 176.18 C 387.81 176.36 360.55 175.90 333.33 176.41 M 271.41 231.46 C 266.79 233.11 263.88 238.47 265.23 243.24 C 266.32 247.95 271.11 251.16 275.87 250.80 C 303.25 250.77 330.64 250.85 358.01 250.76 C 365.10 250.99 370.31 242.47 366.78 236.28 C 364.55 231.42 358.79 230.30 353.98 230.79 C 327.98 230.82 301.98 230.79 275.98 230.80 C 274.44 230.83 272.86 230.89 271.41 231.46 M 396.46 231.67 C 391.83 233.64 389.26 239.40 391.11 244.13 C 392.48 248.19 396.66 250.94 400.92 250.79 C 407.39 250.67 413.90 251.12 420.35 250.53 C 427.49 249.31 430.72 239.57 425.76 234.30 C 421.93 229.57 415.34 230.99 410.04 230.80 C 405.53 231.05 400.80 230.10 396.46 231.67 Z" />
<path fill="#ffffff" opacity="1.00" d=" M 253.41 372.35 C 256.36 368.52 261.25 366.96 265.84 366.17 C 272.65 365.45 280.43 366.48 285.33 371.74 C 286.01 372.55 287.22 373.27 286.97 374.51 C 283.94 375.93 281.15 377.82 278.07 379.11 C 275.82 377.68 274.06 375.13 271.13 375.07 C 267.56 374.10 263.81 376.27 262.98 379.86 C 264.02 381.74 265.41 383.50 267.48 384.31 C 275.10 387.67 284.57 389.02 289.56 396.41 C 292.26 401.37 291.73 408.48 287.26 412.30 C 284.44 414.77 280.79 416.14 277.16 416.87 C 269.71 417.86 261.70 417.72 254.92 414.10 C 251.60 412.70 249.39 409.76 246.85 407.34 C 250.21 405.23 253.89 403.70 257.53 402.16 C 259.83 405.13 263.03 407.91 266.97 408.07 C 270.69 408.25 275.24 408.76 277.91 405.56 C 278.88 403.28 278.35 400.18 275.85 399.18 C 269.01 395.50 260.78 394.49 254.79 389.23 C 250.21 384.98 249.57 377.28 253.41 372.35 Z" />
<path fill="#ffffff" opacity="1.00" d=" M 195.19 367.02 C 211.17 366.74 227.15 366.98 243.12 366.94 C 243.15 369.93 243.24 372.91 243.38 375.89 C 237.55 375.89 231.72 375.90 225.89 375.89 C 225.90 389.58 225.89 403.27 225.90 416.97 C 221.61 416.96 217.32 416.97 213.04 416.94 C 213.09 403.26 213.06 389.58 213.05 375.90 C 207.06 375.89 201.06 375.89 195.07 375.90 C 195.04 372.94 195.08 369.97 195.19 367.02 Z" />
</g>
<g id="#000000ff">
<path fill="#000000" opacity="1.00" d=" M 0.00 41.27 C -0.06 25.40 14.06 11.31 29.91 11.35 C 168.61 11.30 307.31 11.35 446.01 11.33 C 455.27 11.16 464.44 15.55 470.15 22.85 C 474.70 28.49 476.99 35.78 476.80 43.01 C 476.77 125.85 476.85 208.70 476.77 291.55 C 485.48 291.75 494.20 291.40 502.90 291.71 C 508.06 291.94 512.23 296.82 511.97 301.92 C 512.03 363.96 512.00 426.01 511.98 488.05 C 512.39 493.59 507.61 498.81 502.02 498.64 C 422.68 498.68 343.33 498.68 263.99 498.64 C 258.33 498.83 253.96 493.67 253.78 488.24 C 245.67 488.19 237.56 488.40 229.45 488.12 C 229.21 493.61 224.79 498.84 219.03 498.58 C 213.42 498.69 209.13 493.62 208.93 488.26 C 201.04 488.25 193.15 488.24 185.26 488.26 C 184.89 487.43 184.15 485.78 183.78 484.95 C 185.92 491.08 181.27 498.51 174.62 498.54 C 160.74 498.71 146.87 498.52 132.99 498.62 C 129.96 498.59 126.65 498.84 123.99 497.10 C 120.88 495.25 119.10 491.66 119.21 488.09 C 119.18 464.11 119.21 440.12 119.20 416.13 C 89.48 416.10 59.77 416.20 30.06 416.08 C 14.70 416.18 1.05 403.13 0.00 387.88 L 0.00 41.27 M 20.03 41.91 C 19.96 64.34 20.02 86.77 20.00 109.20 C 165.60 109.20 311.20 109.21 456.80 109.19 C 456.77 86.76 456.85 64.34 456.76 41.91 C 456.87 36.95 452.97 32.27 448.03 31.59 C 444.71 31.19 441.35 31.47 438.01 31.40 C 302.31 31.41 166.60 31.38 30.90 31.42 C 25.16 31.09 19.81 36.12 20.03 41.91 M 20.00 129.13 C 20.00 214.43 19.99 299.74 20.01 385.04 C 19.54 391.09 24.98 396.61 31.05 396.19 C 60.43 396.21 89.82 396.19 119.20 396.20 C 119.21 364.78 119.18 333.36 119.21 301.95 C 119.03 297.29 122.44 292.79 127.04 291.87 C 129.99 291.39 133.00 291.64 135.98 291.60 C 242.92 291.59 349.86 291.48 456.80 291.54 C 456.81 237.40 456.80 183.27 456.80 129.13 C 311.20 129.13 165.60 129.14 20.00 129.13 M 139.28 311.27 C 139.74 311.76 139.74 311.76 139.28 311.27 M 141.00 316.00 C 141.00 369.00 141.00 422.00 141.00 475.00 C 199.00 475.00 257.00 475.00 315.00 475.00 C 374.33 475.00 433.67 475.00 493.00 475.00 C 493.00 422.00 493.00 369.00 493.00 316.00 C 433.67 316.00 374.33 316.00 315.00 316.00 C 257.00 316.00 199.00 316.00 141.00 316.00 Z" />
<path fill="#000000" opacity="1.00" d=" M 64.38 60.48 C 111.26 60.14 158.16 60.42 205.04 60.34 C 210.77 59.93 216.03 65.24 215.45 70.98 C 215.22 76.29 210.23 80.59 204.97 80.31 C 159.01 80.37 113.04 80.32 67.07 80.33 C 62.06 80.75 57.00 77.21 56.20 72.16 C 55.04 66.87 59.02 61.21 64.38 60.48 Z" />
<path fill="#000000" opacity="1.00" d=" M 308.43 60.54 C 315.81 58.58 323.03 66.86 319.90 73.90 C 317.51 81.03 306.89 82.48 302.61 76.33 C 298.01 70.95 301.52 61.73 308.43 60.54 Z" />
<path fill="#000000" opacity="1.00" d=" M 358.43 60.59 C 365.58 58.54 372.85 66.21 370.33 73.24 C 368.42 80.56 357.86 82.72 353.18 76.82 C 348.17 71.59 351.36 61.95 358.43 60.59 Z" />
<path fill="#000000" opacity="1.00" d=" M 408.49 60.59 C 415.75 58.49 423.12 66.41 420.35 73.49 C 418.26 80.69 407.75 82.65 403.19 76.71 C 398.31 71.47 401.50 61.96 408.49 60.59 Z" />
<path fill="#000000" opacity="1.00" d=" M 151.16 158.26 C 158.32 154.83 166.99 162.29 164.81 169.88 C 158.40 198.94 151.98 228.01 145.48 257.05 C 144.30 262.92 137.31 266.62 131.82 264.13 C 127.13 262.31 124.60 256.75 126.08 251.98 C 132.44 223.28 138.80 194.59 145.17 165.91 C 145.78 162.58 147.99 159.55 151.16 158.26 Z" />
<path fill="#000000" opacity="1.00" d=" M 80.76 168.79 C 84.01 164.62 90.60 163.92 94.68 167.26 C 98.95 170.45 99.76 177.17 96.33 181.27 C 88.17 191.31 79.84 201.21 71.61 211.20 C 79.77 221.10 88.02 230.92 96.13 240.86 C 99.80 245.05 99.06 252.23 94.37 255.36 C 90.21 258.52 83.76 257.61 80.62 253.43 C 70.76 241.61 60.97 229.74 51.16 217.89 C 47.91 214.36 47.71 208.53 50.87 204.88 C 60.81 192.83 70.76 180.79 80.76 168.79 Z" />
<path fill="#000000" opacity="1.00" d=" M 192.69 171.76 C 194.89 164.91 204.93 162.88 209.50 168.51 C 219.39 180.27 229.12 192.18 238.96 203.99 C 240.93 206.20 242.32 209.09 241.97 212.13 C 241.80 215.73 239.13 218.40 236.97 221.02 C 228.21 231.57 219.46 242.13 210.73 252.71 C 207.97 256.72 202.40 258.68 197.90 256.45 C 192.19 254.05 190.28 246.01 194.24 241.27 C 202.43 231.24 210.73 221.30 219.00 211.34 C 211.58 202.30 204.12 193.31 196.64 184.32 C 193.47 181.06 190.80 176.39 192.69 171.76 Z" />
<path fill="#000000" opacity="1.00" d=" M 272.33 176.56 C 278.85 175.77 285.47 176.38 292.04 176.21 C 297.16 175.90 302.08 179.96 302.52 185.12 C 303.28 190.65 298.56 196.13 292.97 196.14 C 286.99 196.27 281.01 196.21 275.03 196.17 C 270.36 196.33 265.94 192.78 265.12 188.18 C 263.97 183.18 267.39 177.79 272.33 176.56 Z" />
<path fill="#000000" opacity="1.00" d=" M 333.33 176.41 C 360.55 175.90 387.81 176.36 415.05 176.18 C 418.10 176.14 421.42 176.09 424.00 178.01 C 428.04 180.72 429.48 186.53 427.14 190.80 C 425.45 194.15 421.75 196.29 418.00 196.18 C 390.68 196.23 363.35 196.19 336.02 196.20 C 331.12 196.58 326.27 193.06 325.42 188.17 C 324.21 182.93 328.05 177.30 333.33 176.41 Z" />
<path fill="#000000" opacity="1.00" d=" M 271.41 231.46 C 272.86 230.89 274.44 230.83 275.98 230.80 C 301.98 230.79 327.98 230.82 353.98 230.79 C 358.79 230.30 364.55 231.42 366.78 236.28 C 370.31 242.47 365.10 250.99 358.01 250.76 C 330.64 250.85 303.25 250.77 275.87 250.80 C 271.11 251.16 266.32 247.95 265.23 243.24 C 263.88 238.47 266.79 233.11 271.41 231.46 Z" />
<path fill="#000000" opacity="1.00" d=" M 396.46 231.67 C 400.80 230.10 405.53 231.05 410.04 230.80 C 415.34 230.99 421.93 229.57 425.76 234.30 C 430.72 239.57 427.49 249.31 420.35 250.53 C 413.90 251.12 407.39 250.67 400.92 250.79 C 396.66 250.94 392.48 248.19 391.11 244.13 C 389.26 239.40 391.83 233.64 396.46 231.67 Z" />
</g>
<g id="#ff7d95ff">
<path fill="#ff7d95" opacity="1.00" d=" M 20.03 41.91 C 19.81 36.12 25.16 31.09 30.90 31.42 C 166.60 31.38 302.31 31.41 438.01 31.40 C 441.35 31.47 444.71 31.19 448.03 31.59 C 452.97 32.27 456.87 36.95 456.76 41.91 C 456.85 64.34 456.77 86.76 456.80 109.19 C 311.20 109.21 165.60 109.20 20.00 109.20 C 20.02 86.77 19.96 64.34 20.03 41.91 M 64.38 60.48 C 59.02 61.21 55.04 66.87 56.20 72.16 C 57.00 77.21 62.06 80.75 67.07 80.33 C 113.04 80.32 159.01 80.37 204.97 80.31 C 210.23 80.59 215.22 76.29 215.45 70.98 C 216.03 65.24 210.77 59.93 205.04 60.34 C 158.16 60.42 111.26 60.14 64.38 60.48 M 308.43 60.54 C 301.52 61.73 298.01 70.95 302.61 76.33 C 306.89 82.48 317.51 81.03 319.90 73.90 C 323.03 66.86 315.81 58.58 308.43 60.54 M 358.43 60.59 C 351.36 61.95 348.17 71.59 353.18 76.82 C 357.86 82.72 368.42 80.56 370.33 73.24 C 372.85 66.21 365.58 58.54 358.43 60.59 M 408.49 60.59 C 401.50 61.96 398.31 71.47 403.19 76.71 C 407.75 82.65 418.26 80.69 420.35 73.49 C 423.12 66.41 415.75 58.49 408.49 60.59 Z" />
</g>
<g id="#323431ff">
<path fill="#323431" opacity="1.00" d=" M 139.28 311.27 C 139.74 311.76 139.74 311.76 139.28 311.27 Z" />
<path fill="#323431" opacity="1.00" d=" M 403.38 367.20 C 409.31 365.43 415.69 365.49 421.62 367.19 C 425.08 368.79 428.86 370.96 430.22 374.74 C 426.88 375.79 423.89 377.69 420.83 379.33 C 418.66 376.71 415.58 374.43 411.99 374.94 C 408.26 374.28 403.93 378.80 406.94 382.12 C 410.22 384.94 414.67 385.83 418.67 387.23 C 420.29 388.03 422.03 388.53 423.70 389.20 C 427.29 390.80 430.30 393.31 432.86 396.28 C 434.48 399.24 434.29 402.72 434.01 405.98 C 433.41 410.02 430.03 412.91 426.64 414.79 C 418.73 418.15 409.58 417.89 401.39 415.81 C 396.85 413.90 391.36 411.50 389.82 406.39 C 393.09 405.06 396.75 404.14 399.46 401.77 C 401.08 403.82 403.08 405.52 405.37 406.80 C 408.64 408.52 412.43 408.00 415.98 407.94 C 418.50 407.73 421.63 406.06 421.34 403.11 C 421.43 400.17 418.55 398.76 416.25 397.82 C 413.30 396.79 410.38 395.68 407.39 394.78 C 401.24 392.64 394.41 388.67 393.35 381.62 C 392.09 375.02 397.59 369.32 403.38 367.20 Z" />
<path fill="#323431" opacity="1.00" d=" M 368.97 405.74 C 370.23 392.75 368.85 379.63 369.72 366.63 C 373.88 366.74 378.05 366.67 382.22 366.73 C 382.20 379.18 382.38 391.64 382.13 404.09 C 382.24 409.05 378.48 413.11 374.37 415.35 C 369.88 417.51 364.78 417.28 359.93 417.16 C 353.46 417.09 347.31 413.56 343.70 408.24 C 344.62 407.71 345.55 407.18 346.48 406.66 C 348.10 405.85 349.80 405.21 351.34 404.24 C 352.49 403.85 354.26 401.98 354.99 403.90 C 355.90 405.78 357.74 406.76 359.37 407.93 C 362.73 408.05 366.56 408.69 368.97 405.74 Z" />
</g>
<g id="#007cd2ff">
<path fill="#007cd2" opacity="1.00" d=" M 141.00 316.00 C 199.00 316.00 257.00 316.00 315.00 316.00 C 315.00 369.00 315.00 422.00 315.00 475.00 C 257.00 475.00 199.00 475.00 141.00 475.00 C 141.00 422.00 141.00 369.00 141.00 316.00 M 253.41 372.35 C 249.57 377.28 250.21 384.98 254.79 389.23 C 260.78 394.49 269.01 395.50 275.85 399.18 C 278.35 400.18 278.88 403.28 277.91 405.56 C 275.24 408.76 270.69 408.25 266.97 408.07 C 263.03 407.91 259.83 405.13 257.53 402.16 C 253.89 403.70 250.21 405.23 246.85 407.34 C 249.39 409.76 251.60 412.70 254.92 414.10 C 261.70 417.72 269.71 417.86 277.16 416.87 C 280.79 416.14 284.44 414.77 287.26 412.30 C 291.73 408.48 292.26 401.37 289.56 396.41 C 284.57 389.02 275.10 387.67 267.48 384.31 C 265.41 383.50 264.02 381.74 262.98 379.86 C 263.81 376.27 267.56 374.10 271.13 375.07 C 274.06 375.13 275.82 377.68 278.07 379.11 C 281.15 377.82 283.94 375.93 286.97 374.51 C 287.22 373.27 286.01 372.55 285.33 371.74 C 280.43 366.48 272.65 365.45 265.84 366.17 C 261.25 366.96 256.36 368.52 253.41 372.35 M 195.19 367.02 C 195.08 369.97 195.04 372.94 195.07 375.90 C 201.06 375.89 207.06 375.89 213.05 375.90 C 213.06 389.58 213.09 403.26 213.04 416.94 C 217.32 416.97 221.61 416.96 225.90 416.97 C 225.89 403.27 225.90 389.58 225.89 375.89 C 231.72 375.90 237.55 375.89 243.38 375.89 C 243.24 372.91 243.15 369.93 243.12 366.94 C 227.15 366.98 211.17 366.74 195.19 367.02 Z" />
</g>
<g id="#f4db1dff">
<path fill="#f4db1d" opacity="1.00" d=" M 315.00 316.00 C 374.33 316.00 433.67 316.00 493.00 316.00 C 493.00 369.00 493.00 422.00 493.00 475.00 C 433.67 475.00 374.33 475.00 315.00 475.00 C 315.00 422.00 315.00 369.00 315.00 316.00 M 403.38 367.20 C 397.59 369.32 392.09 375.02 393.35 381.62 C 394.41 388.67 401.24 392.64 407.39 394.78 C 410.38 395.68 413.30 396.79 416.25 397.82 C 418.55 398.76 421.43 400.17 421.34 403.11 C 421.63 406.06 418.50 407.73 415.98 407.94 C 412.43 408.00 408.64 408.52 405.37 406.80 C 403.08 405.52 401.08 403.82 399.46 401.77 C 396.75 404.14 393.09 405.06 389.82 406.39 C 391.36 411.50 396.85 413.90 401.39 415.81 C 409.58 417.89 418.73 418.15 426.64 414.79 C 430.03 412.91 433.41 410.02 434.01 405.98 C 434.29 402.72 434.48 399.24 432.86 396.28 C 430.30 393.31 427.29 390.80 423.70 389.20 C 422.03 388.53 420.29 388.03 418.67 387.23 C 414.67 385.83 410.22 384.94 406.94 382.12 C 403.93 378.80 408.26 374.28 411.99 374.94 C 415.58 374.43 418.66 376.71 420.83 379.33 C 423.89 377.69 426.88 375.79 430.22 374.74 C 428.86 370.96 425.08 368.79 421.62 367.19 C 415.69 365.49 409.31 365.43 403.38 367.20 M 368.97 405.74 C 366.56 408.69 362.73 408.05 359.37 407.93 C 357.74 406.76 355.90 405.78 354.99 403.90 C 354.26 401.98 352.49 403.85 351.34 404.24 C 349.80 405.21 348.10 405.85 346.48 406.66 C 345.55 407.18 344.62 407.71 343.70 408.24 C 347.31 413.56 353.46 417.09 359.93 417.16 C 364.78 417.28 369.88 417.51 374.37 415.35 C 378.48 413.11 382.24 409.05 382.13 404.09 C 382.38 391.64 382.20 379.18 382.22 366.73 C 378.05 366.67 373.88 366.74 369.72 366.63 C 368.85 379.63 370.23 392.75 368.97 405.74 Z" />
</g>
</svg>
