<?xml version="1.0" encoding="utf-8"?>
<!-- Generator: Adobe Illustrator 24.1.0, SVG Export Plug-In . SVG Version: 6.00 Build 0)  -->
<svg version="1.1" id="Capa_1" xmlns="http://www.w3.org/2000/svg" xmlns:xlink="http://www.w3.org/1999/xlink" x="0px" y="0px"
	 viewBox="0 0 512 512" style="enable-background:new 0 0 512 512;" xml:space="preserve">
<style type="text/css">
	.st0{fill-rule:evenodd;clip-rule:evenodd;fill:#FF7D95;}
	.st1{fill-rule:evenodd;clip-rule:evenodd;fill:#FFFFFF;}
	.st2{fill-rule:evenodd;clip-rule:evenodd;fill:#F4E710;}
</style>
<g>
	<path class="st0" d="M10,120.1h456.8V42.8c0-11.3-9.2-20.5-20.5-20.5H30.5C19.2,22.4,10,31.6,10,42.8L10,120.1z"/>
</g>
<g>
	<path class="st1" d="M10,386.7c0,11.3,9.2,20.5,20.5,20.5h98.7V302.6h337.6V120.1H10V386.7z"/>
</g>
<g>
	<path class="st2" d="M129.2,407.2v82.5H502V302.6h-35.2H129.2L129.2,407.2z"/>
</g>
<path d="M502,292.6h-25.2V42.8c0-16.8-13.7-30.5-30.5-30.5H30.5C13.7,12.4,0,26,0,42.8v343.8c0,16.8,13.7,30.5,30.5,30.5h88.7v72.5
	c0,5.5,4.5,10,10,10h45c5.5,0,10-4.5,10-10s-4.5-10-10-10h-35V312.6H492v167.1H264c-5.5,0-10,4.5-10,10s4.5,10,10,10h238
	c5.5,0,10-4.5,10-10V302.6C512,297,507.5,292.6,502,292.6z M30.5,32.4h415.8c5.8,0,10.5,4.7,10.5,10.5v67.3H20V42.8
	C20,37.1,24.7,32.4,30.5,32.4L30.5,32.4z M129.2,292.6c-5.5,0-10,4.5-10,10v94.6H30.5c-5.8,0-10.5-4.7-10.5-10.5V130.1h436.8v162.4
	L129.2,292.6z"/>
<path d="M360.8,81.3c5.5,0,10-4.5,10-10s-4.5-10-10-10h-0.1c-5.5,0-10,4.5-10,10S355.2,81.3,360.8,81.3z"/>
<path d="M410.9,81.3c5.5,0,10-4.5,10-10s-4.5-10-10-10h-0.1c-5.5,0-10,4.5-10,10S405.3,81.3,410.9,81.3L410.9,81.3z"/>
<path d="M310.6,81.3c5.5,0,10-4.5,10-10s-4.5-10-10-10h-0.1c-5.5,0-10,4.5-10,10S305.1,81.3,310.6,81.3L310.6,81.3z"/>
<path d="M66,81.3h139.5c5.5,0,10-4.5,10-10s-4.5-10-10-10H66c-5.5,0-10,4.5-10,10S60.4,81.3,66,81.3z"/>
<path d="M157.2,158.7c-5.4-1.2-10.7,2.2-11.9,7.6l-19.4,87.5c-1.2,5.4,2.2,10.7,7.6,11.9c0.7,0.2,1.5,0.2,2.2,0.2
	c4.6,0,8.7-3.2,9.8-7.8l19.4-87.5C166,165.2,162.6,159.9,157.2,158.7L157.2,158.7z"/>
<path d="M94.9,168.4c-4.3-3.5-10.6-2.9-14.1,1.3l-29.9,36.1c-3.1,3.7-3.1,9.1,0,12.8l29.9,36.1c2,2.4,4.8,3.6,7.7,3.6
	c2.2,0,4.5-0.8,6.4-2.3c4.3-3.5,4.8-9.8,1.3-14.1l-24.6-29.7l24.6-29.7C99.7,178.3,99.2,172,94.9,168.4z"/>
<path d="M209.8,169.8c-3.5-4.3-9.8-4.8-14.1-1.3s-4.8,9.8-1.3,14.1l24.6,29.7l-24.6,29.7c-3.5,4.3-2.9,10.6,1.3,14.1
	c1.9,1.5,4.1,2.3,6.4,2.3c2.9,0,5.7-1.2,7.7-3.6l29.9-36.1c3.1-3.7,3.1-9.1,0-12.8L209.8,169.8z"/>
<path d="M274.9,197.2h17.7c5.5,0,10-4.5,10-10s-4.5-10-10-10h-17.7c-5.5,0-10,4.5-10,10S269.3,197.2,274.9,197.2z"/>
<path d="M335.2,197.2h83.1c5.5,0,10-4.5,10-10s-4.5-10-10-10h-83.1c-5.5,0-10,4.5-10,10S329.6,197.2,335.2,197.2z"/>
<path d="M357.9,231.8h-83c-5.5,0-10,4.5-10,10s4.5,10,10,10h83c5.5,0,10-4.5,10-10S363.4,231.8,357.9,231.8z"/>
<path d="M418.2,231.8h-17.7c-5.5,0-10,4.5-10,10s4.5,10,10,10h17.7c5.5,0,10-4.5,10-10S423.7,231.8,418.2,231.8z"/>
<path d="M219.1,479.6c-5.5,0-10,4.5-10,10s4.5,10,10,10h0.1c5.5,0,10-4.5,10-10S224.6,479.6,219.1,479.6z"/>
<g>
	<path d="M364.2,425.5c-7.8,0-15.3-3.1-20-8.4c-3.7-4.1-10-4.4-14.1-0.7c-4.1,3.7-4.4,10-0.7,14.1c8.6,9.5,21.3,15,34.8,15
		c16.7,0,30.7-10.6,33.3-25.3c2-11-3-25.5-23-32.8c-9.6-3.6-18.6-7.4-21.4-8.6c-2.1-1.7-2-4-1.8-5c0.2-1.4,1.2-4.7,6.1-6.2
		c11-3.3,21.2,4.7,21.5,5c4.2,3.5,10.5,2.9,14-1.3c3.5-4.2,3-10.5-1.2-14.1c-0.7-0.6-18.5-15.2-40.1-8.7
		c-10.9,3.3-18.6,11.9-20.2,22.5c-1.4,9.9,2.9,19.5,11.2,24.9c0.5,0.3,0.9,0.6,1.4,0.8c0.5,0.2,11.3,5,23.5,9.5
		c3.4,1.3,11.2,4.8,10.2,10.5C377,421,371.8,425.5,364.2,425.5L364.2,425.5z"/>
	<path d="M239.6,358.9h21v63.5c0,3.9-4.7,7.1-10.5,7.1c-5.8,0-10.5-3.2-10.5-7.1v-7.1h-21v7.1c0,11.7,14.2,21.2,31.6,21.2
		s31.6-9.5,31.6-21.2v-63.5h21v-14.1h-63.1V358.9z"/>
</g>
</svg>
