<?xml version="1.0" encoding="utf-8"?>
<svg viewBox="0 0 64 64" xmlns="http://www.w3.org/2000/svg">
  <g>
    <g>
      <g>
        <path d="m8 36h4v26h-4z" fill="#ffeaa7"/>
      </g>
      <g>
        <path d="m12 2v14h-4v-8-6z" fill="#ffeaa7"/>
      </g>
      <g>
        <path d="m8 8v8h-2c-1.1 0-2.1-.45-2.83-1.17-.72-.73-1.17-1.73-1.17-2.83 0-2.21 1.79-4 4-4z" fill="#aab2bd"/>
      </g>
      <g>
        <path d="m12 2h4v14h-4z" fill="#aab2bd"/>
      </g>
      <g>
        <path d="m12 36h4v26h-4z" fill="#aab2bd"/>
      </g>
      <g>
        <path d="m50 14v-12h-34v14h22c2.21 0 4 1.79 4 4v10 2c0 2.21-1.79 4-4 4h-22v26h46v-32-16z" fill="#e6e9ed"/>
      </g>
      <g>
        <path d="m62 14h-12v-12z" style="fill: rgb(221, 172, 127);"/>
      </g>
      <g>
        <path d="m42 30v2c0 2.21-1.79 4-4 4h-22-4-4-2c-2.21 0-4-1.79-4-4v-20c0 1.1.45 2.1 1.17 2.83.73.72 1.73 1.17 2.83 1.17h2 4 4 22c2.21 0 4 1.79 4 4z" style="fill: rgb(249, 255, 82);"/>
      </g>
      <g>
        <path d="m36 6h4v4h-4z" fill="#aab2bd"/>
      </g>
      <g>
        <path d="m28 6h4v4h-4z" fill="#aab2bd"/>
      </g>
      <g>
        <path d="m20 6h4v4h-4z" fill="#aab2bd"/>
      </g>
      <g>
        <circle cx="42" cy="50" fill="#ff826e" r="2"/>
      </g>
      <g>
        <circle cx="42" cy="42" fill="#ff826e" r="2"/>
      </g>
    </g>
    <g>
      <path d="m50.414 1h-43.414v6h-1c-2.757 0-5 2.243-5 5v20c0 2.757 2.243 5 5 5h1v26h56v-49.414zm.586 3.414 8.586 8.586h-8.586zm-38 10.586v-12h2v12zm-2-12v12h-2v-12zm-5 6h1v6h-1c-1.654 0-3-1.346-3-3s1.346-3 3-3zm-3 23v-16.002c.836.628 1.875 1.002 3 1.002h32c1.654 0 3 1.346 3 3v12c0 1.654-1.346 3-3 3h-32c-1.654 0-3-1.346-3-3zm12 5v24h-2v-24zm-6 0h2v24h-2zm8 24v-24h21c2.757 0 5-2.243 5-5v-12c0-2.757-2.243-5-5-5h-21v-12h32v12h12v46z"/>
      <path d="m15 21h2v9c0 .551-.448 1-1 1s-1-.449-1-1v-1h-2v1c0 1.654 1.346 3 3 3s3-1.346 3-3v-9h2v-2h-6z"/>
      <path d="m31 22.906c0-2.154-1.752-3.906-3.905-3.906h-.189c-2.154 0-3.906 1.752-3.906 3.906 0 1.684 1.073 3.172 2.671 3.705l2.025.676c.78.26 1.304.986 1.304 1.808 0 1.05-.854 1.905-1.905 1.905h-.189c-1.052 0-1.906-.855-1.906-1.906v-1.094h-2v1.094c0 2.154 1.752 3.906 3.905 3.906h.189c2.154 0 3.906-1.752 3.906-3.906 0-1.684-1.073-3.172-2.671-3.705l-2.025-.676c-.781-.259-1.304-.986-1.304-1.807 0-1.051.854-1.906 1.905-1.906h.189c1.052 0 1.906.855 1.906 1.906v.094z"/>
      <path d="m55 46v-3c0-2.206-1.794-4-4-4h-2v2h2c1.103 0 2 .897 2 2v3c0 1.2.542 2.266 1.382 3-.84.734-1.382 1.8-1.382 3v3c0 1.103-.897 2-2 2h-2v2h2c2.206 0 4-1.794 4-4v-3c0-1.103.897-2 2-2v-2c-1.103 0-2-.897-2-2z"/>
      <path d="m29 43v3c0 1.103-.897 2-2 2v2c1.103 0 2 .897 2 2v3c0 2.206 1.794 4 4 4h2v-2h-2c-1.103 0-2-.897-2-2v-3c0-1.2-.542-2.266-1.382-3 .84-.734 1.382-1.8 1.382-3v-3c0-1.103.897-2 2-2h2v-2h-2c-2.206 0-4 1.794-4 4z"/>
      <path d="m42 39c-1.654 0-3 1.346-3 3s1.346 3 3 3 3-1.346 3-3-1.346-3-3-3zm0 4c-.552 0-1-.449-1-1s.448-1 1-1 1 .449 1 1-.448 1-1 1z"/>
      <path d="m42 47c-1.654 0-3 1.346-3 3s1.346 3 3 3c.352 0 .686-.072 1-.184v3.184c0 .551-.448 1-1 1s-1-.449-1-1h-2c0 1.654 1.346 3 3 3s3-1.346 3-3v-6c0-1.654-1.346-3-3-3zm0 4c-.552 0-1-.449-1-1s.448-1 1-1 1 .449 1 1-.448 1-1 1z"/>
      <path d="m19 11h6v-6h-6zm2-4h2v2h-2z"/>
      <path d="m27 11h6v-6h-6zm2-4h2v2h-2z"/>
      <path d="m35 11h6v-6h-6zm2-4h2v2h-2z"/>
      <path d="m45 17h2v2h-2z"/>
      <path d="m49 17h10v2h-10z"/>
      <path d="m45 21h14v2h-14z"/>
      <path d="m45 25h10v2h-10z"/>
      <path d="m57 25h2v2h-2z"/>
      <path d="m45 29h14v2h-14z"/>
      <path d="m45 33h14v2h-14z"/>
    </g>
  </g>
</svg>