<?xml version="1.0" encoding="utf-8"?>
<svg viewBox="-20 0 512 512" xmlns="http://www.w3.org/2000/svg">
  <path d="m305.507812 256c0 38.460938-31.179687 69.640625-69.640624 69.640625-38.460938 0-69.640626-31.179687-69.640626-69.640625s31.179688-69.640625 69.640626-69.640625c38.460937 0 69.640624 31.179687 69.640624 69.640625zm0 0" style="fill: rgb(223, 222, 222);"/>
  <path d="m196.226562 256c0-33.308594 23.394532-61.140625 54.640626-68.003906-4.832032-1.058594-9.847657-1.636719-15-1.636719-38.460938 0-69.640626 31.179687-69.640626 69.640625s31.179688 69.640625 69.640626 69.640625c5.152343 0 10.167968-.578125 15-1.640625-31.246094-6.859375-54.640626-34.691406-54.640626-68zm0 0" style="fill: rgb(195, 195, 195);"/>
  <path d="m206.507812 55.667969c0 19.683593-15.957031 35.640625-35.640624 35.640625-19.683594 0-35.640626-15.957032-35.640626-35.640625 0-19.683594 15.957032-35.640625 35.640626-35.640625 19.683593 0 35.640624 15.957031 35.640624 35.640625zm0 0" style="fill: rgb(253, 168, 111);"/>
  <path d="m155.226562 55.667969c0-16.210938 10.828126-29.886719 25.640626-34.207031-3.171876-.929688-6.527344-1.433594-10-1.433594-19.683594 0-35.640626 15.957031-35.640626 35.640625 0 19.683593 15.957032 35.640625 35.640626 35.640625 3.472656 0 6.828124-.507813 10-1.433594-14.8125-4.324219-25.640626-17.996094-25.640626-34.207031zm0 0" fill="#e36465"/>
  <path d="m442.007812 400.167969c0 19.683593-15.957031 35.640625-35.640624 35.640625-19.683594 0-35.640626-15.957032-35.640626-35.640625 0-19.683594 15.957032-35.640625 35.640626-35.640625 19.683593 0 35.640624 15.957031 35.640624 35.640625zm0 0" fill="#fadc60"/>
  <path d="m390.726562 400.167969c0-16.210938 10.828126-29.886719 25.640626-34.207031-3.171876-.929688-6.527344-1.433594-10-1.433594-19.683594 0-35.640626 15.957031-35.640626 35.640625 0 19.683593 15.957032 35.640625 35.640626 35.640625 3.472656 0 6.828124-.507813 10-1.433594-14.8125-4.324219-25.640626-17.996094-25.640626-34.207031zm0 0" fill="#e6cb59"/>
  <path d="m119.992188 402.875c0 19.683594-15.957032 35.640625-35.640626 35.640625-19.683593 0-35.640624-15.957031-35.640624-35.640625s15.957031-35.640625 35.640624-35.640625c19.683594 0 35.640626 15.957031 35.640626 35.640625zm0 0" style="fill: rgb(82, 203, 255);"/>
  <path d="m68.710938 402.875c0-16.210938 10.828124-29.882812 25.640624-34.207031-3.175781-.925781-6.527343-1.433594-10-1.433594-19.683593 0-35.640624 15.957031-35.640624 35.640625s15.957031 35.640625 35.640624 35.640625c3.472657 0 6.824219-.507813 10-1.433594-14.8125-4.324219-25.640624-17.996093-25.640624-34.207031zm0 0" style="fill: rgb(86, 123, 201);"/>
  <path d="m305.601562 262.652344c-4.058593-.832032-8.019531 1.789062-8.847656 5.847656-5.871094 28.765625-31.476562 49.640625-60.886718 49.640625-34.261719 0-62.140626-27.875-62.140626-62.140625s27.878907-62.140625 62.140626-62.140625c29.394531 0 54.996093 20.863281 60.878906 49.609375.832031 4.058594 4.796875 6.671875 8.851562 5.84375 4.058594-.832031 6.671875-4.792969 5.84375-8.851562-7.304687-35.695313-39.089844-61.601563-75.574218-61.601563-42.535157 0-77.140626 34.605469-77.140626 77.140625s34.605469 77.140625 77.140626 77.140625c36.503906 0 68.292968-25.925781 75.582031-61.640625.828125-4.058594-1.789063-8.019531-5.847657-8.847656zm0 0" style="fill: rgb(175, 105, 255);"/>
  <path d="m431.386719 256c.765625-.894531 1.535156-1.785156 2.285156-2.679688 34.992187-41.765624 46.363281-80.867187 32.015625-110.101562-11.886719-24.222656-39.691406-38.625-80.402344-41.652344-4.140625-.304687-7.730468 2.796875-8.035156 6.925782-.308594 4.128906 2.792969 7.730468 6.921875 8.035156 24.480469 1.820312 56.160156 9.074218 68.046875 33.300781 11.410156 23.242187.457031 57.453125-30.042969 93.859375-.308593.367188-.628906.734375-.941406 1.101562-19.800781-20.8125-44.3125-40.929687-72.15625-59.339843-3.0625-23.785157-7.671875-46.410157-13.71875-67.261719 7.40625-.917969 14.660156-1.5625 21.722656-1.910156 4.136719-.199219 7.328125-3.71875 7.125-7.855469s-3.722656-7.324219-7.859375-7.125c-8.285156.40625-16.8125 1.195313-25.535156 2.351563-3.109375-9.230469-6.511719-18.058594-10.207031-26.402344-22.078125-49.8125-52.171875-77.246094-84.738281-77.246094-15.375 0-30.160157 6.058594-44.03125 17.984375-6.210938-3.472656-13.359376-5.457031-20.96875-5.457031-23.785157 0-43.140626 19.351562-43.140626 43.140625 0 14.363281 7.066407 27.101562 17.894532 34.949219-1.628906 4.242187-3.195313 8.585937-4.6875 13.03125-9.660156-1.277344-19.085938-2.113282-28.210938-2.46875-54.441406-2.117188-92.328125 12.804687-106.671875 42.039062-14.347656 29.234375-2.980469 68.335938 32.011719 110.101562.75.894532 1.519531 1.789063 2.289062 2.679688-.769531.894531-1.539062 1.785156-2.289062 2.683594-34.992188 41.761718-46.359375 80.863281-32.011719 110.097656 6.730469 13.722656 18.585938 24.28125 35.246094 31.480469-.050781.867187-.085937 1.734375-.085937 2.617187 0 23.785156 19.351562 43.140625 43.140624 43.140625 21.394532 0 39.195313-15.660156 42.558594-36.121093 4.605469-.40625 9.277344-.925782 14.011719-1.554688 3.105469 9.234375 6.507813 18.066406 10.207031 26.414062 22.082032 49.808594 52.175782 77.242188 84.738282 77.242188 32.566406 0 62.660156-27.433594 84.738281-77.246094 3.699219-8.351562 7.105469-17.191406 10.21875-26.433594 11.691406 1.5625 22.992187 2.460938 33.773437 2.652344 4.8125 18.578125 21.714844 32.335938 41.769532 32.335938 23.789062 0 43.140624-19.355469 43.140624-43.140625 0-3.546875-.4375-6.992188-1.25-10.292969 7.597657-5.914062 13.449219-12.988281 17.429688-21.09375 14.347656-29.234375 2.976562-68.335938-32.015625-110.101562-.75-.894532-1.519531-1.785157-2.285156-2.679688zm-80.164063-50.972656c22.988282 16.066406 43.285156 33.28125 59.972656 50.972656-16.691406 17.691406-36.984374 34.90625-59.972656 50.972656 1.507813-16.601562 2.285156-33.65625 2.285156-50.972656s-.777343-34.371094-2.285156-50.972656zm-18.773437-30.128906c-14.242188-8.667969-29.210938-16.875-44.753907-24.503907-10.164062-4.988281-20.371093-9.621093-30.570312-13.90625 21.667969-7.226562 42.953125-12.648437 63.269531-16.09375 5.039063 17 9.078125 35.296875 12.054688 54.503907zm-128.804688-147.234376c10.457031-8.398437 21.269531-12.664062 32.222657-12.664062 25.894531 0 51.777343 24.902344 71.023437 68.324219 3.1875 7.1875 6.148437 14.75 8.878906 22.644531-25.597656 4.503906-52.589843 11.980469-79.886719 22.113281-27.3125-10.148437-54.292968-17.613281-79.894531-22.109375 1.027344-2.980468 2.089844-5.910156 3.183594-8.789062 3.722656 1.046875 7.640625 1.625 11.695313 1.625 23.789062 0 43.140624-19.355469 43.140624-43.140625 0-10.679688-3.910156-20.460938-10.363281-28.003907zm-60.917969 28.003907c0-15.519531 12.625-28.140625 28.140626-28.140625 15.515624 0 28.140624 12.621094 28.140624 28.140625 0 15.515625-12.625 28.140625-28.140624 28.140625-15.515626 0-28.140626-12.625-28.140626-28.140625zm8.652344 64.710937c20.308594 3.445313 41.589844 8.867188 63.261719 16.101563-10.214844 4.289062-20.433594 8.921875-30.597656 13.910156-15.53125 7.621094-30.484375 15.824219-44.710938 24.480469 2.980469-19.1875 7.019531-37.488282 12.046875-54.492188zm-131.863281 29.449219c11.40625-23.242187 45.152344-35.511719 92.625-33.660156 7.863281.308593 15.964844.980469 24.257813 2.007812-6.03125 20.851563-10.644532 43.503907-13.710938 67.253907-27.855469 18.414062-52.378906 38.539062-72.183594 59.359374-.3125-.367187-.632812-.734374-.941406-1.101562-30.503906-36.40625-41.453125-70.617188-30.046875-93.859375zm100.996094 157.144531c-22.988281-16.066406-43.28125-33.28125-59.972657-50.972656 16.695313-17.695312 36.996094-34.917969 59.996094-50.988281-1.519531 16.644531-2.304687 33.714843-2.304687 50.988281 0 17.316406.777343 34.371094 2.28125 50.972656zm-36.160157 124.042969c-15.515624 0-28.140624-12.625-28.140624-28.140625s12.625-28.140625 28.140624-28.140625c15.515626 0 28.140626 12.625 28.140626 28.140625s-12.625 28.140625-28.140626 28.140625zm42.378907-36.164063c-3.769531-19.964843-21.335938-35.117187-42.378907-35.117187-17.582031 0-32.730468 10.578125-39.445312 25.699219-12.054688-5.675782-20.585938-13.476563-25.390625-23.261719-11.40625-23.242187-.453125-57.453125 30.046875-93.859375.308594-.367188.628906-.734375.941406-1.101562 19.800782 20.8125 44.3125 40.929687 72.15625 59.339843 3.058594 23.78125 7.667969 46.40625 13.714844 67.253907-3.246094.40625-6.460938.753906-9.644531 1.046874zm12.558593-57.75c14.242188 8.667969 29.207032 16.875 44.753907 24.503907 10.132812 4.972656 20.34375 9.605469 30.566406 13.886719-21.65625 7.21875-42.957031 12.648437-63.269531 16.105468-5.039063-17-9.074219-35.292968-12.050782-54.496094zm167.601563 91.574219c-19.246094 43.421875-45.128906 68.324219-71.023437 68.324219-25.890626 0-51.777344-24.902344-71.023438-68.324219-3.1875-7.191406-6.152344-14.761719-8.882812-22.660156 25.621093-4.515625 52.65625-12.007813 79.949218-22.132813 27.289063 10.101563 54.339844 17.585938 79.875 22.101563-2.734375 7.910156-5.703125 15.488281-8.894531 22.691406zm13.511719-37.101562c-20.242188-3.457031-41.546875-8.882813-63.222656-16.097657 10.199218-4.277343 20.390624-8.902343 30.515624-13.871093 15.542969-7.628907 30.511719-15.839844 44.75-24.503907-2.972656 19.195313-7.007812 37.480469-12.042968 54.472657zm-39.316406-43.433594c-14.996094 7.359375-30.128907 13.949219-45.191407 19.722656-15.089843-5.773437-30.246093-12.363281-45.246093-19.722656-18.988282-9.320313-37.070313-19.511719-53.953126-30.335937-2.28125-19.925782-3.464843-40.652344-3.464843-61.804688 0-21.085938 1.1875-41.835938 3.488281-61.816406 16.875-10.824219 34.953125-21.011719 53.929688-30.324219 15.039062-7.378906 30.179687-13.976563 45.230468-19.75 15.035156 5.769531 30.164063 12.367187 45.207032 19.75 18.988281 9.320313 37.074218 19.511719 53.953124 30.335937 2.285157 19.925782 3.46875 40.652344 3.46875 61.804688s-1.183593 41.878906-3.46875 61.804688c-16.878906 10.824218-34.964843 21.015624-53.953124 30.335937zm125.28125 80.167969c-15.515626 0-28.140626-12.625-28.140626-28.140625 0-15.519531 12.625-28.140625 28.140626-28.140625 15.515624 0 28.140624 12.621094 28.140624 28.140625 0 15.515625-12.621093 28.140625-28.140624 28.140625zm45.855468-66.136719c-2.460937 5.011719-5.953125 9.519531-10.375 13.496094-7.792968-11.253907-20.785156-18.640625-35.480468-18.640625-22.363282 0-40.800782 17.105468-42.929688 38.917968-9-.210937-18.386719-.9375-28.070312-2.152343 6.042968-20.84375 10.652343-43.464844 13.710937-67.242188 27.84375-18.410156 52.355469-38.527343 72.15625-59.339843.3125.367187.632813.734374.941406 1.101562 30.5 36.40625 41.453125 70.617188 30.046875 93.859375zm0 0" style="fill: rgb(114, 255, 248);"/>
</svg>