<?xml version="1.0" encoding="UTF-8" ?>
<!DOCTYPE svg PUBLIC "-//W3C//DTD SVG 1.1//EN" "http://www.w3.org/Graphics/SVG/1.1/DTD/svg11.dtd">
<svg width="505pt" height="502pt" viewBox="0 0 302 218" version="1.1" xmlns="http://www.w3.org/2000/svg">
<g id="#ffffffff">
<path fill="#ffffff" opacity="1.00" d=" M 49.11 88.23 C 51.10 88.22 53.09 88.20 55.09 88.18 C 55.10 99.13 55.07 110.08 55.10 121.03 C 55.20 124.55 56.45 128.58 59.80 130.30 C 65.22 133.17 73.33 130.64 74.21 124.00 C 74.66 112.09 74.27 100.15 74.40 88.23 C 76.49 88.22 78.58 88.22 80.66 88.22 C 80.64 99.17 80.69 110.13 80.64 121.08 C 80.57 126.60 77.79 132.26 72.76 134.85 C 66.67 137.80 58.56 137.26 53.62 132.37 C 50.37 129.18 48.96 124.51 49.09 120.05 C 49.12 109.44 49.09 98.84 49.11 88.23 Z" />
<path fill="#ffffff" opacity="1.00" d=" M 94.27 88.21 C 103.39 88.26 112.50 88.17 121.62 88.26 C 121.63 89.86 121.64 91.46 121.66 93.07 C 118.11 93.27 114.55 93.18 111.00 93.11 C 111.00 105.76 110.99 118.40 111.01 131.05 C 114.54 131.07 118.08 131.06 121.62 131.05 C 121.61 132.65 121.60 134.25 121.60 135.86 C 112.48 135.87 103.37 135.85 94.26 135.87 C 94.26 134.26 94.26 132.66 94.27 131.06 C 97.81 131.05 101.36 131.06 104.91 131.05 C 104.91 118.43 104.93 105.81 104.90 93.19 C 101.34 93.16 97.79 93.20 94.24 93.13 C 94.25 91.49 94.26 89.85 94.27 88.21 Z" />
<path fill="#ffffff" opacity="1.00" d=" M 178.31 88.25 C 180.31 88.24 182.30 88.22 184.30 88.16 C 184.57 99.45 184.30 110.75 184.44 122.04 C 184.53 125.71 186.48 129.67 190.18 130.86 C 193.32 131.70 197.01 131.71 199.83 129.88 C 202.59 127.90 203.75 124.35 203.73 121.07 C 203.72 110.12 203.69 99.16 203.74 88.21 C 205.78 88.23 207.82 88.23 209.87 88.24 C 209.87 98.82 209.88 109.41 209.87 119.99 C 209.99 125.62 207.56 131.63 202.50 134.50 C 196.36 137.79 187.80 137.43 182.78 132.26 C 179.48 129.13 178.24 124.42 178.30 119.98 C 178.32 109.41 178.30 98.83 178.31 88.25 Z" />
<path fill="#ffffff" opacity="1.00" d=" M 219.82 88.20 C 222.13 88.22 224.45 88.24 226.76 88.27 C 230.27 94.34 233.58 100.52 237.24 106.49 C 240.63 100.33 244.15 94.25 247.71 88.17 C 249.84 88.23 251.98 88.24 254.12 88.25 C 249.62 95.53 245.13 102.82 240.64 110.11 C 245.57 118.77 250.80 127.25 255.73 135.91 C 253.41 135.88 251.11 135.87 248.80 135.89 C 244.99 129.00 241.24 122.07 237.42 115.18 C 237.21 115.19 236.78 115.20 236.57 115.21 C 232.72 122.10 228.90 129.01 224.99 135.87 C 222.85 135.87 220.72 135.88 218.59 135.88 C 223.41 127.46 228.47 119.19 233.30 110.79 C 229.35 103.05 224.11 95.83 219.82 88.20 Z" />
</g>
<g id="#00c0ffff">
<path fill="#00c0ff" opacity="1.00" d=" M 37.20 43.21 C 53.73 30.31 75.13 23.62 96.06 25.32 C 116.62 26.68 136.51 35.86 150.95 50.54 L 151.10 50.70 C 138.49 62.82 130.36 79.33 127.34 96.49 C 122.58 123.25 131.38 152.28 150.91 171.32 L 151.04 171.45 C 137.13 185.33 118.47 194.39 98.90 196.35 C 84.14 198.03 68.99 195.55 55.38 189.65 C 37.23 181.81 22.08 167.41 13.23 149.73 C 4.53 132.38 1.81 112.06 5.88 93.06 C 10.05 73.47 21.28 55.40 37.20 43.21 M 49.11 88.23 C 49.09 98.84 49.12 109.44 49.09 120.05 C 48.96 124.51 50.37 129.18 53.62 132.37 C 58.56 137.26 66.67 137.80 72.76 134.85 C 77.79 132.26 80.57 126.60 80.64 121.08 C 80.69 110.13 80.64 99.17 80.66 88.22 C 78.58 88.22 76.49 88.22 74.40 88.23 C 74.27 100.15 74.66 112.09 74.21 124.00 C 73.33 130.64 65.22 133.17 59.80 130.30 C 56.45 128.58 55.20 124.55 55.10 121.03 C 55.07 110.08 55.10 99.13 55.09 88.18 C 53.09 88.20 51.10 88.22 49.11 88.23 M 94.27 88.21 C 94.26 89.85 94.25 91.49 94.24 93.13 C 97.79 93.20 101.34 93.16 104.90 93.19 C 104.93 105.81 104.91 118.43 104.91 131.05 C 101.36 131.06 97.81 131.05 94.27 131.06 C 94.26 132.66 94.26 134.26 94.26 135.87 C 103.37 135.85 112.48 135.87 121.60 135.86 C 121.60 134.25 121.61 132.65 121.62 131.05 C 118.08 131.06 114.54 131.07 111.01 131.05 C 110.99 118.40 111.00 105.76 111.00 93.11 C 114.55 93.18 118.11 93.27 121.66 93.07 C 121.64 91.46 121.63 89.86 121.62 88.26 C 112.50 88.17 103.39 88.26 94.27 88.21 Z" />
</g>
<g id="#1f4c6dff">
<path fill="#1f4c6d" opacity="1.00" d=" M 150.95 50.54 C 164.47 36.85 182.70 27.87 201.83 25.68 C 219.74 23.42 238.32 27.16 254.02 36.05 C 271.11 45.50 284.67 61.09 291.82 79.26 C 299.45 98.50 299.99 120.53 292.89 140.02 C 285.82 159.79 271.26 176.84 252.65 186.63 C 241.45 192.82 228.77 196.19 216.01 196.78 C 192.08 197.99 167.84 188.55 151.04 171.45 L 150.91 171.32 C 161.82 161.13 169.11 147.45 173.06 133.14 C 180.96 104.38 172.42 71.64 151.10 50.70 L 150.95 50.54 M 178.31 88.25 C 178.30 98.83 178.32 109.41 178.30 119.98 C 178.24 124.42 179.48 129.13 182.78 132.26 C 187.80 137.43 196.36 137.79 202.50 134.50 C 207.56 131.63 209.99 125.62 209.87 119.99 C 209.88 109.41 209.87 98.82 209.87 88.24 C 207.82 88.23 205.78 88.23 203.74 88.21 C 203.69 99.16 203.72 110.12 203.73 121.07 C 203.75 124.35 202.59 127.90 199.83 129.88 C 197.01 131.71 193.32 131.70 190.18 130.86 C 186.48 129.67 184.53 125.71 184.44 122.04 C 184.30 110.75 184.57 99.45 184.30 88.16 C 182.30 88.22 180.31 88.24 178.31 88.25 M 219.82 88.20 C 224.11 95.83 229.35 103.05 233.30 110.79 C 228.47 119.19 223.41 127.46 218.59 135.88 C 220.72 135.88 222.85 135.87 224.99 135.87 C 228.90 129.01 232.72 122.10 236.57 115.21 C 236.78 115.20 237.21 115.19 237.42 115.18 C 241.24 122.07 244.99 129.00 248.80 135.89 C 251.11 135.87 253.41 135.88 255.73 135.91 C 250.80 127.25 245.57 118.77 240.64 110.11 C 245.13 102.82 249.62 95.53 254.12 88.25 C 251.98 88.24 249.84 88.23 247.71 88.17 C 244.15 94.25 240.63 100.33 237.24 106.49 C 233.58 100.52 230.27 94.34 226.76 88.27 C 224.45 88.24 222.13 88.22 219.82 88.20 Z" />
</g>
<g id="#1086b6ff">
<path fill="#1086b6" opacity="1.00" d=" M 127.34 96.49 C 130.36 79.33 138.49 62.82 151.10 50.70 C 172.42 71.64 180.96 104.38 173.06 133.14 C 169.11 147.45 161.82 161.13 150.91 171.32 C 131.38 152.28 122.58 123.25 127.34 96.49 Z" />
</g>
</svg>
